<?xml version="1.0" encoding="UTF-8" standalone="no"?>
<svg
   viewBox="0 0 19.974405 29.358274"
   version="1.1"
   xmlns="http://www.w3.org/2000/svg"
   xmlns:svg="http://www.w3.org/2000/svg">
  <g transform="translate(-0.7877485,-6.4948765)">
    <path
       style="font-weight:bold;font-size:35.2777px;font-family:'Noto Sans JP';-inkscape-font-specification:'Noto Sans JP Bold';fill:#000;stroke:#FFF;stroke-width:2.265;stroke-linejoin:round;paint-order:stroke fill markers"
       d="m 10.774951,34.720649 q -2.6458276,0 -4.6566564,-1.516941 -1.9755511,-1.552219 -3.1044375,-4.586101 -1.0936087,-3.06916 -1.0936087,-7.584705 0,-4.480268 1.0936087,-7.443595 1.1288864,-2.998604 3.1044375,-4.4802675 2.0108288,-1.4816633 4.6566564,-1.4816633 2.681105,0 4.656656,1.516941 1.975551,1.4816638 3.06916,4.4449898 1.128886,2.963327 1.128886,7.443595 0,4.515545 -1.128886,7.584705 -1.093609,3.033882 -3.06916,4.586101 -1.975551,1.516941 -4.656656,1.516941 z m 0,-4.056936 q 1.164164,0 2.046106,-0.881942 0.881943,-0.881943 1.375831,-2.963327 0.493887,-2.116662 0.493887,-5.785542 0,-3.633603 -0.493887,-5.67971 -0.493888,-2.081384 -1.375831,-2.892771 -0.881942,-0.846665 -2.046106,-0.846665 -1.0936089,0 -2.010829,0.846665 -0.8819425,0.811387 -1.411108,2.892771 -0.5291655,2.046107 -0.5291655,5.67971 0,3.66888 0.5291655,5.785542 0.5291655,2.081384 1.411108,2.963327 0.9172201,0.881942 2.010829,0.881942 z"
       aria-label="0" />
  </g>
</svg>
