<?xml version="1.0" encoding="UTF-8" standalone="no"?>
<svg
   viewBox="0 0 20.044954 28.864382"
   version="1.1"
   xmlns="http://www.w3.org/2000/svg"
   xmlns:svg="http://www.w3.org/2000/svg">
  <g transform="translate(-1.5743436,-8.7030598)">
    <path
       style="font-weight:bold;font-size:35.2777px;font-family:'Noto Sans JP';-inkscape-font-specification:'Noto Sans JP Bold';fill:#000;stroke:#FFF;stroke-width:2.265;stroke-linejoin:round;paint-order:stroke markers fill"
       d="M 2.98906,36.434944 V 33.43634 q 3.5630476,-3.174993 6.0677642,-5.891376 2.5399938,-2.716383 3.8805468,-5.044711 1.340553,-2.363606 1.340553,-4.374434 0,-1.269998 -0.458611,-2.222495 -0.45861,-0.952498 -1.340552,-1.446386 -0.846665,-0.529166 -2.116662,-0.529166 -1.4111079,0 -2.6105497,0.811388 -1.164164,0.776109 -2.1519396,1.869718 L 2.7068384,13.821939 q 1.8344403,-1.975551 3.7394361,-2.963326 1.9402734,-1.0230535 4.5861005,-1.0230535 2.469439,0 4.303879,1.0230535 1.869719,0.987775 2.892772,2.786938 1.023053,1.799163 1.023053,4.233324 0,2.363606 -1.199442,4.833044 -1.164164,2.434162 -3.139715,4.868323 -1.975551,2.434161 -4.374435,4.797767 1.023054,-0.141111 2.187218,-0.211666 1.199442,-0.105833 2.116662,-0.105833 h 5.644431 v 4.374434 z"
       aria-label="2" />
  </g>
</svg>
