<?xml version="1.0" encoding="UTF-8" standalone="no"?>
<svg
   viewBox="0 0 20.186066 29.358273"
   version="1.1"
   xmlns="http://www.w3.org/2000/svg"
   xmlns:svg="http://www.w3.org/2000/svg">
  <g transform="translate(-1.2568429,-8.7030599)">
    <path
       style="font-weight:bold;font-size:35.2777px;font-family:'Noto Sans JP';-inkscape-font-specification:'Noto Sans JP Bold';fill:#000;stroke:#FFF;stroke-width:2.265;stroke-linejoin:round;paint-order:stroke markers fill"
       d="m 11.102931,36.928832 q -2.0461068,0 -3.668881,-0.493888 Q 5.8112759,35.976334 4.5412787,35.164947 3.3065593,34.318282 2.3893391,33.295229 l 2.4341612,-3.280826 q 1.1994418,1.093609 2.6105497,1.904996 1.4463857,0.776109 3.210271,0.776109 1.340552,0 2.328328,-0.423332 1.023053,-0.423333 1.552218,-1.23472 0.564444,-0.811387 0.564444,-1.975551 0,-1.305275 -0.634999,-2.222495 -0.599721,-0.952498 -2.15194,-1.446385 -1.552218,-0.493888 -4.3744342,-0.493888 v -3.739436 q 2.3988832,0 3.7747142,-0.493888 1.37583,-0.529166 1.940273,-1.411108 0.599721,-0.91722 0.599721,-2.081384 0,-1.516941 -0.91722,-2.363606 -0.91722,-0.881943 -2.575272,-0.881943 -1.3758306,0 -2.5752723,0.634999 -1.1641641,0.599721 -2.3283281,1.658052 L 3.1654485,13.010552 q 1.7286072,-1.446385 3.6336029,-2.29305 1.9049958,-0.8819425 4.1980466,-0.8819425 2.504716,0 4.409712,0.8113875 1.940273,0.811387 2.998604,2.363605 1.058331,1.552219 1.058331,3.774714 0,2.116662 -1.128886,3.633603 -1.128886,1.516941 -3.210271,2.328328 v 0.176389 q 1.446386,0.388054 2.61055,1.269997 1.199442,0.846665 1.869718,2.151939 0.705554,1.305275 0.705554,3.033882 0,2.363606 -1.269997,4.056936 -1.23472,1.693329 -3.351382,2.610549 -2.081384,0.881943 -4.5861,0.881943 z"
       aria-label="3" />
  </g>
</svg>
