<?xml version="1.0" encoding="UTF-8" standalone="no"?>
<svg
   viewBox="0 0 20.221344 28.899664"
   version="1.1"
   xmlns="http://www.w3.org/2000/svg"
   xmlns:svg="http://www.w3.org/2000/svg">
  <g transform="translate(-1.2568431,-9.161669)">
    <path
       style="font-weight:bold;font-size:35.2777px;font-family:'Noto Sans JP';-inkscape-font-specification:'Noto Sans JP Bold';fill:#000;stroke:#FFF;stroke-width:2.265;stroke-linejoin:round;paint-order:stroke markers fill"
       d="m 11.244041,36.928832 q -2.0813837,0 -3.7041579,-0.493888 Q 5.917109,35.941056 4.6471118,35.129669 3.3771147,34.318282 2.3893391,33.365784 l 2.3988835,-3.316103 q 0.7408317,0.740831 1.5874965,1.340552 0.8819424,0.599721 1.9049957,0.952498 1.0583309,0.352777 2.2577722,0.352777 1.340553,0 2.363606,-0.564443 1.058331,-0.564443 1.658052,-1.622774 0.599721,-1.093609 0.599721,-2.61055 0,-2.257773 -1.234719,-3.492492 -1.199442,-1.234719 -3.174993,-1.234719 -1.1288867,0 -1.9402737,0.317499 -0.8113871,0.282221 -1.9755512,1.023053 L 4.4707233,22.994141 5.1762773,10.29417 H 19.146246 v 4.374434 H 9.656545 l -0.4938877,5.538599 q 0.7761093,-0.352777 1.5169407,-0.529166 0.740832,-0.176388 1.622774,-0.176388 2.187218,0 4.021658,0.881942 1.83444,0.846665 2.928049,2.681105 1.093609,1.834441 1.093609,4.691934 0,2.892772 -1.305275,4.974156 -1.269997,2.046106 -3.351382,3.139715 -2.046106,1.058331 -4.44499,1.058331 z"
       aria-label="5" />
  </g>
</svg>
