<?xml version="1.0"?>
<svg xmlns="http://www.w3.org/2000/svg" viewBox="-0.5 -0.5 66 66" preserveAspectRatio="none" role="img">
	<g>
		<g>
			<g>
				<polygon fill="#BBB" stroke="#000" points="3,15 10,15 14,19 13,21 2,21 2,19" stroke-linejoin="round" />
				<polygon fill="#EDA" stroke="#000" points="1,12 4,17 8,17 13,15 13,9 1,9" stroke-linejoin="round" />
				<polygon fill="#F00" stroke="#000" points="0,12 0,8 2,4 5,2 5,0 6,2 9,2 10,0 11,3 14,6 15,8 15,14 14,15 13,15 12,13 9,10 3,10 1,12" stroke-linejoin="round" />
				<polygon fill="#000" stroke="#000" points="4,6 3,7 0,1" stroke-linejoin="round" />
				<polygon fill="#000" stroke="#000" points="9,6 10,7 15,1" stroke-linejoin="round" />
			</g>
			<g transform="translate(20 0)">
				<polygon fill="#BBB" stroke="#000" points="3,15 10,15 14,19 13,21 2,21 2,19" stroke-linejoin="round" />
				<polygon fill="#EDA" stroke="#000" points="1,12 4,17 8,17 13,15 13,9 1,9" stroke-linejoin="round" />
				<polygon fill="#F00" stroke="#000" points="0,12 0,8 2,4 5,2 5,0 6,2 9,2 10,0 11,3 14,6 15,8 15,14 14,15 13,15 12,13 9,10 3,10 1,12" stroke-linejoin="round" />
				<polygon fill="#000" stroke="#000" points="4,6 3,7 0,1" stroke-linejoin="round" />
				<polygon fill="#000" stroke="#000" points="9,6 10,7 15,1" stroke-linejoin="round" />
			</g>
			<g transform="translate(40 0)">
				<polygon fill="#BBB" stroke="#000" points="3,15 10,15 14,19 13,21 2,21 2,19" stroke-linejoin="round" />
				<polygon fill="#EDA" stroke="#000" points="1,12 4,17 8,17 13,15 13,9 1,9" stroke-linejoin="round" />
				<polygon fill="#F00" stroke="#000" points="0,12 0,8 2,4 5,2 5,0 6,2 9,2 10,0 11,3 14,6 15,8 15,14 14,15 13,15 12,13 9,10 3,10 1,12" stroke-linejoin="round" />
				<polygon fill="#000" stroke="#000" points="4,6 3,7 0,1" stroke-linejoin="round" />
				<polygon fill="#000" stroke="#000" points="9,6 10,7 15,1" stroke-linejoin="round" />
			</g>
		</g>
		<g transform="translate(10 9)">
			<g>
				<polygon fill="#BBB" stroke="#000" points="3,15 10,15 14,19 13,21 2,21 2,19" stroke-linejoin="round" />
				<polygon fill="#EDA" stroke="#000" points="1,12 4,17 8,17 13,15 13,9 1,9" stroke-linejoin="round" />
				<polygon fill="#F00" stroke="#000" points="0,12 0,8 2,4 5,2 5,0 6,2 9,2 10,0 11,3 14,6 15,8 15,14 14,15 13,15 12,13 9,10 3,10 1,12" stroke-linejoin="round" />
				<polygon fill="#000" stroke="#000" points="4,6 3,7 0,1" stroke-linejoin="round" />
				<polygon fill="#000" stroke="#000" points="9,6 10,7 15,1" stroke-linejoin="round" />
			</g>
			<g transform="translate(20 0)">
				<polygon fill="#BBB" stroke="#000" points="3,15 10,15 14,19 13,21 2,21 2,19" stroke-linejoin="round" />
				<polygon fill="#EDA" stroke="#000" points="1,12 4,17 8,17 13,15 13,9 1,9" stroke-linejoin="round" />
				<polygon fill="#F00" stroke="#000" points="0,12 0,8 2,4 5,2 5,0 6,2 9,2 10,0 11,3 14,6 15,8 15,14 14,15 13,15 12,13 9,10 3,10 1,12" stroke-linejoin="round" />
				<polygon fill="#000" stroke="#000" points="4,6 3,7 0,1" stroke-linejoin="round" />
				<polygon fill="#000" stroke="#000" points="9,6 10,7 15,1" stroke-linejoin="round" />
			</g>
			<g transform="translate(40 0)">
				<polygon fill="#BBB" stroke="#000" points="3,15 10,15 14,19 13,21 2,21 2,19" stroke-linejoin="round" />
				<polygon fill="#EDA" stroke="#000" points="1,12 4,17 8,17 13,15 13,9 1,9" stroke-linejoin="round" />
				<polygon fill="#F00" stroke="#000" points="0,12 0,8 2,4 5,2 5,0 6,2 9,2 10,0 11,3 14,6 15,8 15,14 14,15 13,15 12,13 9,10 3,10 1,12" stroke-linejoin="round" />
				<polygon fill="#000" stroke="#000" points="4,6 3,7 0,1" stroke-linejoin="round" />
				<polygon fill="#000" stroke="#000" points="9,6 10,7 15,1" stroke-linejoin="round" />
			</g>
		</g>
	</g>
	<g transform="translate(0 17.5)">
		<g>
			<g>
				<polygon fill="#BBB" stroke="#000" points="3,15 10,15 14,19 13,21 2,21 2,19" stroke-linejoin="round" />
				<polygon fill="#EDA" stroke="#000" points="1,12 4,17 8,17 13,15 13,9 1,9" stroke-linejoin="round" />
				<polygon fill="#F00" stroke="#000" points="0,12 0,8 2,4 5,2 5,0 6,2 9,2 10,0 11,3 14,6 15,8 15,14 14,15 13,15 12,13 9,10 3,10 1,12" stroke-linejoin="round" />
				<polygon fill="#000" stroke="#000" points="4,6 3,7 0,1" stroke-linejoin="round" />
				<polygon fill="#000" stroke="#000" points="9,6 10,7 15,1" stroke-linejoin="round" />
			</g>
			<g transform="translate(20 0)">
				<polygon fill="#BBB" stroke="#000" points="3,15 10,15 14,19 13,21 2,21 2,19" stroke-linejoin="round" />
				<polygon fill="#EDA" stroke="#000" points="1,12 4,17 8,17 13,15 13,9 1,9" stroke-linejoin="round" />
				<polygon fill="#F00" stroke="#000" points="0,12 0,8 2,4 5,2 5,0 6,2 9,2 10,0 11,3 14,6 15,8 15,14 14,15 13,15 12,13 9,10 3,10 1,12" stroke-linejoin="round" />
				<polygon fill="#000" stroke="#000" points="4,6 3,7 0,1" stroke-linejoin="round" />
				<polygon fill="#000" stroke="#000" points="9,6 10,7 15,1" stroke-linejoin="round" />
			</g>
			<g transform="translate(40 0)">
				<polygon fill="#BBB" stroke="#000" points="3,15 10,15 14,19 13,21 2,21 2,19" stroke-linejoin="round" />
				<polygon fill="#EDA" stroke="#000" points="1,12 4,17 8,17 13,15 13,9 1,9" stroke-linejoin="round" />
				<polygon fill="#F00" stroke="#000" points="0,12 0,8 2,4 5,2 5,0 6,2 9,2 10,0 11,3 14,6 15,8 15,14 14,15 13,15 12,13 9,10 3,10 1,12" stroke-linejoin="round" />
				<polygon fill="#000" stroke="#000" points="4,6 3,7 0,1" stroke-linejoin="round" />
				<polygon fill="#000" stroke="#000" points="9,6 10,7 15,1" stroke-linejoin="round" />
			</g>
		</g>
		<g transform="translate(10 9)">
			<g>
				<polygon fill="#BBB" stroke="#000" points="3,15 10,15 14,19 13,21 2,21 2,19" stroke-linejoin="round" />
				<polygon fill="#EDA" stroke="#000" points="1,12 4,17 8,17 13,15 13,9 1,9" stroke-linejoin="round" />
				<polygon fill="#F00" stroke="#000" points="0,12 0,8 2,4 5,2 5,0 6,2 9,2 10,0 11,3 14,6 15,8 15,14 14,15 13,15 12,13 9,10 3,10 1,12" stroke-linejoin="round" />
				<polygon fill="#000" stroke="#000" points="4,6 3,7 0,1" stroke-linejoin="round" />
				<polygon fill="#000" stroke="#000" points="9,6 10,7 15,1" stroke-linejoin="round" />
			</g>
			<g transform="translate(20 0)">
				<polygon fill="#BBB" stroke="#000" points="3,15 10,15 14,19 13,21 2,21 2,19" stroke-linejoin="round" />
				<polygon fill="#EDA" stroke="#000" points="1,12 4,17 8,17 13,15 13,9 1,9" stroke-linejoin="round" />
				<polygon fill="#F00" stroke="#000" points="0,12 0,8 2,4 5,2 5,0 6,2 9,2 10,0 11,3 14,6 15,8 15,14 14,15 13,15 12,13 9,10 3,10 1,12" stroke-linejoin="round" />
				<polygon fill="#000" stroke="#000" points="4,6 3,7 0,1" stroke-linejoin="round" />
				<polygon fill="#000" stroke="#000" points="9,6 10,7 15,1" stroke-linejoin="round" />
			</g>
			<g transform="translate(40 0)">
				<polygon fill="#BBB" stroke="#000" points="3,15 10,15 14,19 13,21 2,21 2,19" stroke-linejoin="round" />
				<polygon fill="#EDA" stroke="#000" points="1,12 4,17 8,17 13,15 13,9 1,9" stroke-linejoin="round" />
				<polygon fill="#F00" stroke="#000" points="0,12 0,8 2,4 5,2 5,0 6,2 9,2 10,0 11,3 14,6 15,8 15,14 14,15 13,15 12,13 9,10 3,10 1,12" stroke-linejoin="round" />
				<polygon fill="#000" stroke="#000" points="4,6 3,7 0,1" stroke-linejoin="round" />
				<polygon fill="#000" stroke="#000" points="9,6 10,7 15,1" stroke-linejoin="round" />
			</g>
		</g>
	</g>
	<g transform="translate(0 35)">
		<g>
			<g>
				<polygon fill="#BBB" stroke="#000" points="3,15 10,15 14,19 13,21 2,21 2,19" stroke-linejoin="round" />
				<polygon fill="#EDA" stroke="#000" points="1,12 4,17 8,17 13,15 13,9 1,9" stroke-linejoin="round" />
				<polygon fill="#F00" stroke="#000" points="0,12 0,8 2,4 5,2 5,0 6,2 9,2 10,0 11,3 14,6 15,8 15,14 14,15 13,15 12,13 9,10 3,10 1,12" stroke-linejoin="round" />
				<polygon fill="#000" stroke="#000" points="4,6 3,7 0,1" stroke-linejoin="round" />
				<polygon fill="#000" stroke="#000" points="9,6 10,7 15,1" stroke-linejoin="round" />
			</g>
			<g transform="translate(20 0)">
				<polygon fill="#BBB" stroke="#000" points="3,15 10,15 14,19 13,21 2,21 2,19" stroke-linejoin="round" />
				<polygon fill="#EDA" stroke="#000" points="1,12 4,17 8,17 13,15 13,9 1,9" stroke-linejoin="round" />
				<polygon fill="#F00" stroke="#000" points="0,12 0,8 2,4 5,2 5,0 6,2 9,2 10,0 11,3 14,6 15,8 15,14 14,15 13,15 12,13 9,10 3,10 1,12" stroke-linejoin="round" />
				<polygon fill="#000" stroke="#000" points="4,6 3,7 0,1" stroke-linejoin="round" />
				<polygon fill="#000" stroke="#000" points="9,6 10,7 15,1" stroke-linejoin="round" />
			</g>
			<g transform="translate(40 0)">
				<polygon fill="#BBB" stroke="#000" points="3,15 10,15 14,19 13,21 2,21 2,19" stroke-linejoin="round" />
				<polygon fill="#EDA" stroke="#000" points="1,12 4,17 8,17 13,15 13,9 1,9" stroke-linejoin="round" />
				<polygon fill="#F00" stroke="#000" points="0,12 0,8 2,4 5,2 5,0 6,2 9,2 10,0 11,3 14,6 15,8 15,14 14,15 13,15 12,13 9,10 3,10 1,12" stroke-linejoin="round" />
				<polygon fill="#000" stroke="#000" points="4,6 3,7 0,1" stroke-linejoin="round" />
				<polygon fill="#000" stroke="#000" points="9,6 10,7 15,1" stroke-linejoin="round" />
			</g>
		</g>
		<g transform="translate(10 9)">
			<g>
				<polygon fill="#BBB" stroke="#000" points="3,15 10,15 14,19 13,21 2,21 2,19" stroke-linejoin="round" />
				<polygon fill="#EDA" stroke="#000" points="1,12 4,17 8,17 13,15 13,9 1,9" stroke-linejoin="round" />
				<polygon fill="#F00" stroke="#000" points="0,12 0,8 2,4 5,2 5,0 6,2 9,2 10,0 11,3 14,6 15,8 15,14 14,15 13,15 12,13 9,10 3,10 1,12" stroke-linejoin="round" />
				<polygon fill="#000" stroke="#000" points="4,6 3,7 0,1" stroke-linejoin="round" />
				<polygon fill="#000" stroke="#000" points="9,6 10,7 15,1" stroke-linejoin="round" />
			</g>
			<g transform="translate(20 0)">
				<polygon fill="#BBB" stroke="#000" points="3,15 10,15 14,19 13,21 2,21 2,19" stroke-linejoin="round" />
				<polygon fill="#EDA" stroke="#000" points="1,12 4,17 8,17 13,15 13,9 1,9" stroke-linejoin="round" />
				<polygon fill="#F00" stroke="#000" points="0,12 0,8 2,4 5,2 5,0 6,2 9,2 10,0 11,3 14,6 15,8 15,14 14,15 13,15 12,13 9,10 3,10 1,12" stroke-linejoin="round" />
				<polygon fill="#000" stroke="#000" points="4,6 3,7 0,1" stroke-linejoin="round" />
				<polygon fill="#000" stroke="#000" points="9,6 10,7 15,1" stroke-linejoin="round" />
			</g>
			<g transform="translate(40 0)">
				<polygon fill="#BBB" stroke="#000" points="3,15 10,15 14,19 13,21 2,21 2,19" stroke-linejoin="round" />
				<polygon fill="#EDA" stroke="#000" points="1,12 4,17 8,17 13,15 13,9 1,9" stroke-linejoin="round" />
				<polygon fill="#F00" stroke="#000" points="0,12 0,8 2,4 5,2 5,0 6,2 9,2 10,0 11,3 14,6 15,8 15,14 14,15 13,15 12,13 9,10 3,10 1,12" stroke-linejoin="round" />
				<polygon fill="#000" stroke="#000" points="4,6 3,7 0,1" stroke-linejoin="round" />
				<polygon fill="#000" stroke="#000" points="9,6 10,7 15,1" stroke-linejoin="round" />
			</g>
		</g>
	</g>
</svg>