<?xml version="1.0"?>
<svg xmlns="http://www.w3.org/2000/svg" viewBox="-0.5 -0.5 16 16" preserveAspectRatio="none" role="img">
	<polygon fill="#DC0" stroke="#000" points="1,11 11,11 11,15 1,15" stroke-linejoin="round" />
	<polygon fill="#DC0" stroke="#000" points="11,11 14,11.25 14,15 11,15" stroke-linejoin="round" />
	<polygon fill="#DC0" stroke="#000" points="1,11 0,7.5 0,3 2,0 11,0 13.5,0.75 15,3.5 15,8 14,11.25 11,11" stroke-linejoin="round" />
	<polyline  fill="none" stroke="#000" points="10,0 11.5,3 11.5,7.5 11,11" stroke-linejoin="round" />
	<polyline  fill="none" stroke="#000" points="4.6,0 3.75,3 3.75,7.5 4.6,11" stroke-linejoin="round" />
	<polyline  fill="none" stroke="#000" points="7.4,0 7.75,3 7.75,7.5 7.4,11" stroke-linejoin="round" />
</svg>