<?xml version="1.0"?>
<svg xmlns="http://www.w3.org/2000/svg" viewBox="-2.5 -2.75 102.5 102.75" preserveAspectRatio="none" role="img">
	<polygon fill="#77C" points="-10,-10 -10,100 100,100 100,-10" />
	<polygon fill="#6B6" points="-10,-10 100,-10 100,39 91,40 90,39 92,27 89,26 90,22 88,19 80,22 79,21 80,16 75,17 72,20 67,21 66,26 68,30 71,30 77,28 81,30 81,31 78,33 76,36 74,40 74,43 78,56 79,66 77,75 74,82 67,88 65,89 60,90 55,90 54,91 54,94 53,94 52,91 52,90 46,90 43,93 43,95 45,100 -10,100" />
	<polygon fill="#6B6" points="87,81 86,92 83,99 82,98 79,93 80,87 83,81 85,80" />
	<polygon fill="#6B6" points="51,96 55,95 56,96 54,100 50,100 49,98" />
	<polygon fill="#6B6" points="98,75 100,72 100,74 99,77" />
	<polygon fill="#AA5" points="-10,-10 55,-10 55,0 45,20 30,30 20,35 5,45 0,60 -10,65" />
	<polygon fill="#CC7" points="-10,-10 10,-10 15,0 25,15 25,25 15,25 0,20 -10,15" />
	<polygon fill="#77C" points="11,70.4 16,71 21,67 25,61 38,60 44,56 47,53 50,53 55,56 58,60 61,61 65,58 68,53 71,51 74,52 78,56 77,51 73,50 70,50 67,53 65,57 61,60 58,59 55,55 50,52 47,52 44,55 38,59 25,60 21,66 16,70 11,70" />
	<polygon fill="#77C" points="22,30 22.5,24 22.5,11 24.5,9.5 32,10 33,15 33,25 33.5,30.5 50,30.5 62,30 67,27 67,25 62,29 50,29.5 34.5,29.5 33.5,25 33.5,15 33,9.5 24,9 22,10.5 22,24 21.8,30" />
</svg>