<?xml version="1.0" encoding="UTF-8" standalone="no"?>
<svg
   viewBox="0 0 87.176979 30.910494"
   version="1.1"
   xmlns="http://www.w3.org/2000/svg"
   xmlns:svg="http://www.w3.org/2000/svg">
  <g transform="translate(-2.4458003,-6.7828105)">
    <path
       style="font-weight:bold;font-size:35.2777px;font-family:'Noto Sans JP';-inkscape-font-specification:'Noto Sans JP Bold';fill:#000;stroke:#FFF;stroke-width:2.265;stroke-linejoin:round;paint-order:stroke fill markers"
       d="M 3.5783003,36.066914 V 9.926139 h 9.0663687 q 2.786938,0 5.009433,0.740832 2.222495,0.705554 3.52777,2.469439 1.305275,1.728607 1.305275,4.727211 0,2.892771 -1.305275,4.762489 -1.305275,1.834441 -3.52777,2.716383 -2.222495,0.846665 -5.009433,0.846665 H 8.7993997 v 9.877756 z M 8.7993997,22.061667 h 3.3866593 q 2.539994,0 3.845269,-1.058331 1.340552,-1.058331 1.340552,-3.139715 0,-2.116662 -1.340552,-2.928049 -1.305275,-0.846665 -3.845269,-0.846665 H 8.7993997 Z m 8.9605353,14.005247 -6.067764,-11.218309 3.668881,-3.245548 8.254981,14.463857 z m 13.792142,0.493887 q -1.728608,0 -3.06916,-0.740831 -1.305275,-0.77611 -2.046107,-2.116662 -0.705554,-1.340553 -0.705554,-3.033882 0,-3.139715 2.716383,-4.868323 2.716383,-1.763885 8.643036,-2.398883 -0.03528,-0.987776 -0.352777,-1.728607 -0.317499,-0.77611 -1.058331,-1.23472 -0.705554,-0.45861 -1.940273,-0.45861 -1.37583,0 -2.716383,0.529166 -1.340552,0.529165 -2.716383,1.37583 l -1.83444,-3.457215 q 1.164164,-0.740831 2.469439,-1.305274 1.305275,-0.564444 2.75166,-0.917221 1.446386,-0.388054 2.998605,-0.388054 2.504716,0 4.198046,0.987775 1.693329,0.987776 2.539994,2.928049 0.846665,1.940274 0.846665,4.797767 v 11.535808 h -4.233324 l -0.352777,-2.116662 h -0.176388 q -1.269997,1.128886 -2.751661,1.869718 -1.481663,0.740831 -3.21027,0.740831 z m 1.728607,-4.056935 q 1.093609,0 1.975551,-0.493888 0.91722,-0.529165 1.83444,-1.446385 V 26.61249 q -2.398883,0.282222 -3.809991,0.811387 -1.411108,0.529166 -2.010829,1.269998 -0.599721,0.705554 -0.599721,1.587496 0,1.164164 0.705554,1.69333 0.740832,0.529165 1.904996,0.529165 z m 14.287454,3.563048 V 16.311402 h 4.233324 l 0.388054,2.61055 h 0.105833 q 1.305275,-1.269997 2.857494,-2.187217 1.552219,-0.91722 3.563047,-0.91722 3.210271,0 4.656657,2.116662 1.446385,2.081384 1.446385,5.82082 V 36.066914 H 59.633111 V 24.389995 q 0,-2.29305 -0.670277,-3.21027 -0.634998,-0.91722 -2.116662,-0.91722 -1.199441,0 -2.116661,0.564443 -0.881943,0.564443 -1.975552,1.658052 v 13.581914 z m 22.613029,0 V 7.9153102 h 5.115267 V 24.77805 h 0.14111 l 6.738041,-8.466648 h 5.679709 l -6.773318,8.149149 7.408317,11.606363 h -5.644432 l -4.797767,-8.219704 -2.75166,3.21027 v 5.009434 z"
       aria-label="Rank" />
  </g>
</svg>
