<?xml version="1.0" encoding="UTF-8" standalone="no"?>
<svg
   viewBox="0 0 95.693161 26.634741"
   version="1.1"
   xmlns="http://www.w3.org/2000/svg"
   xmlns:svg="http://www.w3.org/2000/svg">
  <g transform="translate(-1.8849756,-5.5097043)">
    <path
       d="M 1.8849757,31.650555 V 28.51083 L 14.055817,9.8841511 H 3.0138653 V 5.5097037 H 20.476377 V 8.6494281 L 8.3055356,27.276107 H 20.58221 v 4.374448 z M 32.56967,32.144444 q -2.751669,0 -4.97417,-1.234723 -2.222502,-1.234723 -3.563058,-3.563058 -1.305279,-2.328335 -1.305279,-5.573893 0,-2.39889 0.740834,-4.303892 0.776112,-1.905001 2.08139,-3.245557 1.340557,-1.375835 2.963335,-2.081391 1.658057,-0.740833 3.421947,-0.740833 2.716391,0 4.550837,1.234723 1.834445,1.199445 2.751668,3.351391 0.952501,2.116668 0.952501,4.868336 0,0.705556 -0.07056,1.375835 -0.07055,0.635 -0.176389,1.023056 H 27.771889 q 0.211666,1.587501 0.9525,2.681113 0.740834,1.093612 1.905002,1.658056 1.164167,0.529168 2.645835,0.529168 1.199445,0 2.257779,-0.317501 1.058334,-0.352778 2.151946,-1.023056 l 1.76389,3.175002 q -1.44639,0.987779 -3.245558,1.587501 -1.799168,0.599723 -3.633613,0.599723 z M 27.666055,19.761936 h 8.078617 q 0,-1.975557 -0.917223,-3.139725 -0.881945,-1.199445 -2.822224,-1.199445 -1.023056,0 -1.940279,0.493889 -0.917223,0.458612 -1.552224,1.44639 -0.635,0.952501 -0.846667,2.398891 z M 44.458268,31.650555 V 11.894986 h 4.233336 l 0.388056,3.492502 h 0.105833 q 1.093612,-1.940279 2.57528,-2.963335 1.481667,-1.023056 3.033891,-1.023056 0.846667,0 1.340556,0.141111 0.529167,0.105833 0.952501,0.282222 l -0.846667,4.480281 q -0.564445,-0.141111 -1.023057,-0.211667 -0.423333,-0.105833 -1.093612,-0.105833 -1.128889,0 -2.39889,0.881945 -1.234723,0.881945 -2.08139,2.998613 v 11.782786 z m 23.063202,0.493889 q -2.469446,0 -4.656669,-1.234723 -2.151946,-1.234723 -3.492503,-3.52778 -1.340556,-2.328335 -1.340556,-5.609171 0,-3.280835 1.340556,-5.573892 1.340557,-2.328335 3.492503,-3.563058 2.187223,-1.234723 4.656669,-1.234723 1.869724,0 3.563058,0.705556 1.693335,0.705556 3.033891,2.046112 1.340557,1.305279 2.116668,3.245558 0.776112,1.905001 0.776112,4.374447 0,3.280836 -1.340556,5.609171 -1.340557,2.293057 -3.527781,3.52778 -2.151945,1.234723 -4.621392,1.234723 z m 0,-4.233336 q 1.340557,0 2.25778,-0.740834 0.9525,-0.776112 1.411112,-2.151946 0.493889,-1.375834 0.493889,-3.245558 0,-1.869723 -0.493889,-3.245558 -0.458612,-1.375834 -1.411112,-2.116668 -0.917223,-0.776111 -2.25778,-0.776111 -1.340556,0 -2.293057,0.776111 -0.917223,0.740834 -1.411112,2.116668 -0.458611,1.375835 -0.458611,3.245558 0,1.869724 0.458611,3.245558 0.493889,1.375834 1.411112,2.151946 0.952501,0.740834 2.293057,0.740834 z m 12.558879,3.739447 v -2.998613 q 3.386669,-3.245558 5.926671,-5.856116 2.540002,-2.645835 3.951114,-4.797781 1.411112,-2.187223 1.411112,-4.056947 0,-1.305278 -0.458612,-2.222501 -0.458611,-0.917223 -1.340556,-1.411112 -0.846667,-0.4938895 -2.116668,-0.4938895 -1.411112,0 -2.610558,0.8113895 -1.164167,0.811389 -2.151945,1.869723 l -2.89278,-2.8222237 q 1.834445,-1.9402791 3.739447,-2.9280575 1.940279,-1.0230563 4.586114,-1.0230563 2.469446,0 4.303892,0.9877785 1.869723,0.9877784 2.892779,2.7869463 1.023057,1.7638897 1.023057,4.1627807 0,2.187224 -1.234723,4.480281 -1.199446,2.293057 -3.21028,4.656669 -1.975557,2.328335 -4.33917,4.797781 0.987779,-0.141111 2.187224,-0.211666 1.199445,-0.105834 2.116668,-0.105834 h 5.715004 v 4.374448 z"
       aria-label="Zero2" />
  </g>
</svg>
