<?xml version="1.0" encoding="UTF-8" standalone="no"?>
<svg
   viewBox="0 0 202.24763 32.385021"
   version="1.1"
   xmlns="http://www.w3.org/2000/svg"
   xmlns:svg="http://www.w3.org/2000/svg">
  <g transform="translate(-1.6380312,-1.9113681)">
    <path
       d="m 27.884715,3.498869 q 0.458612,0.6350005 0.952501,1.5169455 0.529167,0.8819451 1.023056,1.7638901 0.49389,0.881945 0.81139,1.5522233 l -2.822224,1.234723 Q 27.284993,8.4730391 26.544159,7.0972048 25.803325,5.6860927 25.097769,4.6630365 Z m 4.162781,-1.587501 q 0.458611,0.6702782 0.987778,1.587501 0.564445,0.8819451 1.058334,1.7638901 0.49389,0.8466673 0.81139,1.4463899 L 32.082774,7.9085942 Q 31.553607,6.8149824 30.742217,5.4391481 29.966106,4.0633139 29.26055,3.0755354 Z M 7.1413681,20.679158 Q 7.7410907,19.197491 8.2702578,17.574712 8.8347026,15.916655 9.2580362,14.188043 9.6813698,12.424153 9.99887,10.695541 10.351648,8.9669283 10.492759,7.2735938 l 5.150559,1.0583341 q -0.141111,0.4938892 -0.3175,1.1641674 -0.176389,0.6702787 -0.3175,1.3052787 -0.141111,0.635 -0.211667,1.058334 -0.176389,0.917223 -0.493889,2.222502 -0.3175,1.305278 -0.740834,2.786946 -0.423334,1.44639 -0.881945,2.928057 -0.423334,1.44639 -0.881945,2.681113 -0.635001,1.693335 -1.516946,3.52778 -0.8466668,1.834446 -1.8344452,3.527781 -0.9525007,1.693334 -1.8697235,3.03389 l -4.9388922,-2.08139 q 1.6933344,-2.187223 3.1397243,-4.833059 1.4816677,-2.645835 2.3636127,-4.97417 z M 24.568602,19.938325 Q 24.039435,18.527212 23.404435,16.939711 22.769434,15.35221 22.063878,13.764709 21.358322,12.177208 20.688044,10.766096 20.017766,9.3549841 19.453321,8.3319279 l 4.691947,-1.5169455 q 0.529167,1.0230562 1.234723,2.4694461 0.705557,1.4463895 1.411113,3.0691685 0.705556,1.587501 1.375834,3.175002 0.670278,1.587501 1.199445,2.857502 0.458611,1.164168 0.987779,2.751669 0.564444,1.587501 1.128889,3.316113 0.599723,1.693335 1.093612,3.316113 0.529167,1.622779 0.881945,2.928058 l -5.221115,1.693334 q -0.458611,-2.08139 -1.058334,-4.233336 -0.599722,-2.151946 -1.27,-4.233336 -0.635001,-2.08139 -1.340557,-3.986391 z m 14.322787,-4.621392 q 0.635001,0.03528 1.622779,0.105833 0.987779,0.03528 2.046113,0.07056 1.093612,0.03528 2.010835,0.03528 0.881945,0 2.187223,0 1.305279,0 2.822224,0 1.552224,0 3.175002,0 1.658057,0 3.280836,0 1.622779,0 3.069169,0 1.44639,0 2.575279,0 1.164168,0 1.834446,0 1.234723,0 2.328335,-0.07056 1.093612,-0.105834 1.799168,-0.141111 v 5.538614 q -0.599723,-0.03528 -1.799168,-0.105833 -1.199445,-0.07056 -2.328335,-0.07056 -0.670278,0 -1.834446,0 -1.164167,0 -2.610557,0 -1.44639,0 -3.069169,0 -1.587501,0 -3.245558,0 -1.658056,0 -3.210279,0 -1.516946,0 -2.822225,0 -1.27,0 -2.151945,0 -1.516946,0 -3.104447,0.07056 -1.587501,0.03528 -2.57528,0.105833 z M 95.970854,4.5572031 q 0.49389,0.7408338 1.058334,1.7286123 0.599723,0.9525006 1.164168,1.9402791 0.564445,0.9525006 0.987778,1.7991675 l -3.069168,1.305279 Q 95.582799,10.201651 95.124187,9.3197063 94.665576,8.4024835 94.136409,7.5558162 93.642519,6.6738712 93.007519,5.7919261 Z m 4.833056,-1.6933345 q 0.56445,0.6702783 1.16417,1.6227789 0.59972,0.9525006 1.16417,1.9050013 0.56444,0.9525006 0.98778,1.7286122 l -2.99862,1.3405565 Q 100.55697,8.3672057 100.0278,7.4852606 99.533912,6.6033156 99.004745,5.7919261 98.475578,4.9805367 97.8053,4.0985917 Z M 80.625011,3.8869249 q 0.881945,0.4586114 1.975557,1.1288896 1.093611,0.6702782 2.222501,1.4111121 1.12889,0.705556 2.151946,1.3758342 1.023056,0.6350005 1.693334,1.1288897 L 86.057792,12.812209 Q 85.316958,12.318319 84.293902,11.648041 83.306124,10.977763 82.177234,10.272207 81.083622,9.5666509 79.99001,8.9316505 78.931676,8.2613723 78.085009,7.767483 Z M 74.098617,28.934164 q 1.975557,-0.352778 4.02167,-0.881945 2.046112,-0.529167 4.056947,-1.270001 2.010835,-0.776112 3.915836,-1.834446 2.998613,-1.693334 5.573893,-3.810002 2.610557,-2.116668 4.691947,-4.480281 2.08139,-2.39889 3.457225,-4.938892 l 2.716395,4.797781 q -2.43417,3.668891 -6.067786,6.949727 -3.598336,3.245557 -7.937506,5.750281 -1.799168,0.987779 -3.951114,1.905002 -2.151945,0.881945 -4.233336,1.516945 -2.046112,0.635001 -3.598336,0.917223 z m 1.093612,-17.0039 q 0.881945,0.458611 2.010835,1.128889 1.12889,0.670278 2.257779,1.375835 1.12889,0.670278 2.116668,1.340556 1.023057,0.635 1.693335,1.12889 l -2.57528,3.951113 Q 79.919455,20.32638 78.896398,19.656102 77.90862,18.985824 76.77973,18.280268 75.686118,17.574712 74.592507,16.939711 73.534173,16.269433 72.652228,15.810822 Z m 37.817801,-0.211667 q 0.45861,0.03528 1.23473,0.105833 0.77611,0.03528 1.62277,0.07056 0.84667,0 1.51695,0 0.84667,0 2.18722,0 1.34056,0 2.89278,0 1.5875,0 3.13973,0 1.55222,0 2.89278,0 1.34055,0 2.2225,0 0.635,0 1.44639,0 0.84667,-0.03528 1.27,-0.07056 -0.0353,0.352778 -0.0353,1.093612 0,0.705556 0,1.270001 0,0.388056 0,1.622779 0,1.199445 0,2.963335 0,1.76389 0,3.739447 0,1.975557 0,3.880558 0,1.869724 0,3.351391 0,1.44639 0,2.151946 0,0.423334 0,1.164168 0.0353,0.776111 0.0353,1.234723 h -4.445 q 0.0353,-0.458612 0.0353,-1.270001 0,-0.81139 0,-1.340557 0,-0.917222 0,-2.328334 0,-1.44639 0,-3.104447 0,-1.693334 0,-3.386669 0,-1.728612 0,-3.21028 0,-1.481668 0,-2.469446 0,-1.023056 0,-1.340556 -0.3175,0 -1.12889,0 -0.81138,0 -1.86972,0 -1.05833,0 -2.29306,0 -1.19944,0 -2.39889,0 -1.16416,0 -2.2225,0 -1.02305,0 -1.72861,0 -0.67028,0 -1.51695,0.03528 -0.84666,0 -1.65805,0.03528 -0.77611,0.03528 -1.19945,0.07056 z m 0.91723,8.290283 q 0.70555,0.03528 1.76389,0.07056 1.09361,0.03528 2.08139,0.03528 0.42333,0 1.48166,0 1.09362,0 2.50473,0 1.44639,0 2.96333,0 1.51695,0 2.8575,0 1.37584,0 2.32834,0 0.9525,0 1.16417,0 v 3.986391 q -0.24695,0 -1.19945,0 -0.91722,0 -2.29306,0 -1.34055,0 -2.8575,0 -1.51694,0 -2.96333,0 -1.41111,0 -2.46945,0 -1.05833,0 -1.51694,0 -0.98778,0 -2.11667,0.03528 -1.09361,0 -1.72861,0.03528 z m -1.30528,8.643062 q 0.45861,0.03528 1.27,0.105833 0.81139,0.03528 1.79917,0.03528 0.52916,0 1.76389,0 1.23472,0 2.82222,0 1.62278,0 3.35139,0 1.72861,0 3.28084,0 1.5875,0 2.71639,0 1.12889,0 1.48166,0 v 4.092225 q -0.45861,0 -1.62277,0 -1.16417,0 -2.75167,0 -1.55223,0 -3.24556,0 -1.69333,0 -3.28084,0 -1.5875,0 -2.82222,0 -1.19945,0 -1.72861,0 -0.74084,0 -1.65806,0.03528 -0.91722,0.03528 -1.37583,0.07055 z M 149.27562,4.8394255 q 0.91722,0.6350004 2.15195,1.5522233 1.23472,0.9172228 2.54,2.0108347 1.34055,1.058334 2.50472,2.0813905 1.16417,1.023056 1.905,1.834445 l -3.59833,3.668892 q -0.67028,-0.740834 -1.76389,-1.76389 -1.09361,-1.023057 -2.36362,-2.116668 -1.27,-1.093612 -2.50472,-2.081391 -1.23472,-0.9877781 -2.18722,-1.6580563 z m -4.40973,23.4950155 q 2.75167,-0.388056 5.18584,-1.093612 2.43417,-0.705556 4.51556,-1.622778 2.08139,-0.917223 3.81,-1.905002 2.99862,-1.799168 5.50334,-4.092225 2.50472,-2.293057 4.37445,-4.762503 1.86972,-2.504724 2.96333,-4.8683365 l 2.75167,4.9741705 q -1.34056,2.363612 -3.31611,4.727225 -1.94028,2.363613 -4.40973,4.515559 -2.46944,2.116668 -5.32695,3.810002 -1.79916,1.093612 -3.88055,2.08139 -2.08139,0.952501 -4.40973,1.693335 -2.29306,0.776111 -4.79778,1.199445 z m 39.01725,3.316114 v -4.198059 h 7.76112 V 10.87193 h -6.13834 V 7.6263718 q 2.46945,-0.4586114 4.26862,-0.8113894 1.79916,-0.3880558 3.24555,-1.3758343 h 3.81001 V 27.452496 h 7.05556 v 4.198059 z"
       aria-label="バージョン１" />
  </g>
</svg>
