<?xml version="1.0" encoding="UTF-8" standalone="no"?>
<svg
   viewBox="0 0 307.58713 33.231693"
   version="1.1"
   xmlns="http://www.w3.org/2000/svg"
   xmlns:svg="http://www.w3.org/2000/svg">
  <g transform="translate(-4.7777558,-1.6291456)">
    <path
       d="m 4.8130332,6.6385934 q 1.0936119,0.035278 2.0461125,0.070556 0.9877784,0 1.6933345,0 0.5644448,0 1.7286118,0 1.199446,0 2.786947,0 1.587501,0 3.386669,0 1.799168,0 3.598335,0 1.834446,0 3.421947,0 1.587501,0 2.751669,0 1.199445,0 1.728612,0 0.670278,0 1.587501,0 0.952501,-0.035278 1.905001,-0.070556 -0.03528,0.8113894 -0.07056,1.7286123 0,0.881945 0,1.6933343 0,0.493889 0,1.552223 0,1.023057 0,2.469447 0,1.411112 0,3.03389 0,1.587502 0,3.21028 0,1.622779 0,3.069169 0,1.411112 0,2.469446 0,1.023056 0,1.481668 0,0.529167 0,1.340556 0.03528,0.776112 0.03528,1.587501 0,0.776112 0,1.375835 0.03528,0.564444 0.03528,0.599722 h -4.868336 q 0,-0.07055 0,-0.846667 0.03528,-0.811389 0.03528,-1.905001 0.03528,-1.093612 0.03528,-2.046113 0,-0.458611 0,-1.552223 0,-1.093612 0,-2.57528 0,-1.481667 0,-3.139724 0,-1.658057 0,-3.245558 0,-1.587501 0,-2.892779 0,-1.305279 0,-2.081391 0,-0.776111 0,-0.776111 H 9.6108142 q 0,0 0,0.776111 0,0.776112 0,2.081391 0,1.270001 0,2.892779 0,1.587501 0,3.245558 0,1.622779 0,3.139724 0,1.481668 0,2.57528 0,1.093612 0,1.552223 0,0.635001 0,1.44639 0,0.776112 0,1.516946 0.035278,0.740833 0.035278,1.234723 0,0.529167 0,0.599722 H 4.7777554 q 0,-0.07055 0,-0.599722 0.035278,-0.529167 0.035278,-1.305279 0.035278,-0.776112 0.035278,-1.587501 0.035278,-0.81139 0.035278,-1.44639 0,-0.458611 0,-1.481668 0,-1.058334 0,-2.504724 0,-1.446389 0,-3.03389 0,-1.622779 0,-3.245558 0,-1.622779 0,-3.033891 0,-1.44639 0,-2.469446 0,-1.023056 0,-1.481668 0,-0.7408337 0,-1.6933343 0,-0.9877785 -0.070556,-1.7286123 z M 28.413882,25.829717 v 4.515559 H 7.2119237 V 25.829717 Z M 38.891389,15.316933 q 0.635001,0.03528 1.622779,0.105833 0.987779,0.03528 2.046113,0.07056 1.093612,0.03528 2.010835,0.03528 0.881945,0 2.187223,0 1.305279,0 2.822224,0 1.552224,0 3.175002,0 1.658057,0 3.280836,0 1.622779,0 3.069169,0 1.44639,0 2.575279,0 1.164168,0 1.834446,0 1.234723,0 2.328335,-0.07056 1.093612,-0.105834 1.799168,-0.141111 v 5.538614 q -0.599723,-0.03528 -1.799168,-0.105833 -1.199445,-0.07056 -2.328335,-0.07056 -0.670278,0 -1.834446,0 -1.164167,0 -2.610557,0 -1.44639,0 -3.069169,0 -1.587501,0 -3.245558,0 -1.658056,0 -3.210279,0 -1.516946,0 -2.822225,0 -1.27,0 -2.151945,0 -1.516946,0 -3.104447,0.07056 -1.587501,0.03528 -2.57528,0.105833 z M 94.983094,5.4038703 q 0.493889,0.7055561 1.093612,1.6580567 0.599722,0.9525006 1.128889,1.9050013 0.564445,0.9525006 0.987779,1.7638897 l -3.069169,1.375835 Q 94.630316,10.977763 94.136427,10.095818 93.677815,9.2138729 93.183926,8.4024835 92.690037,7.5558162 92.019759,6.6385934 Z m 4.621392,-1.9402791 q 0.529164,0.7055561 1.128894,1.6227789 0.635,0.9172229 1.19944,1.8697235 0.59972,0.9172228 0.98778,1.7286123 L 99.957264,10.131096 Q 99.392819,9.0022061 98.863652,8.1555388 98.369763,7.2735938 97.840596,6.4974822 97.346707,5.6860927 96.676428,4.8394255 Z M 80.907251,28.793053 q 0,-0.705556 0,-2.222502 0,-1.552223 0,-3.563058 0,-2.046112 0,-4.233336 0,-2.222501 0,-4.268614 0,-2.08139 0,-3.668891 0,-1.5875013 0,-2.3283351 0,-0.9525007 -0.105833,-2.1519459 -0.07056,-1.1994453 -0.246945,-2.1166681 H 86.05781 Q 85.951977,5.1569257 85.846143,6.2858154 85.74031,7.414705 85.74031,8.5083169 q 0,0.9525006 0,2.6458351 0,1.693334 0,3.774725 0,2.046112 0,4.198058 0,2.151946 0,4.127503 0,1.940279 0,3.421947 0,1.44639 0,2.116668 0,0.458611 0.03528,1.375834 0.07055,0.881945 0.141111,1.834446 0.105833,0.9525 0.176389,1.693334 h -5.538615 q 0.176389,-1.023056 0.246945,-2.434168 0.105833,-1.44639 0.105833,-2.469446 z m 3.810003,-15.4164 q 1.76389,0.458612 3.915836,1.199446 2.187223,0.705556 4.409725,1.552223 2.222501,0.811389 4.198058,1.622779 1.975557,0.776111 3.245557,1.411112 l -1.975556,4.903614 q -1.516945,-0.811389 -3.316113,-1.587501 -1.799168,-0.776111 -3.668892,-1.516945 -1.834445,-0.776112 -3.598335,-1.411112 -1.76389,-0.635001 -3.21028,-1.093612 z M 119.2895,3.6752581 q -0.14111,1.0936118 -0.28222,2.3636127 -0.10584,1.2700008 -0.17639,2.3283349 -0.0353,1.4463898 -0.14111,3.5277803 -0.0706,2.046112 -0.14111,4.303892 -0.0353,2.257779 -0.10584,4.445003 -0.0353,2.187223 -0.0353,3.810002 0,1.76389 0.635,2.822224 0.67028,1.023057 1.76389,1.481668 1.09362,0.423334 2.46945,0.423334 2.18722,0 3.98639,-0.564445 1.79917,-0.599723 3.28084,-1.587501 1.48167,-0.987779 2.64583,-2.293057 1.19945,-1.305279 2.15195,-2.751669 l 3.21028,3.880558 q -0.84667,1.270001 -2.2225,2.681113 -1.37584,1.411112 -3.28084,2.645835 -1.86972,1.234723 -4.33917,2.010835 -2.46944,0.776112 -5.46806,0.776112 -2.89278,0 -5.04472,-0.917223 -2.11667,-0.881945 -3.31612,-2.751669 -1.16416,-1.905001 -1.16416,-4.903614 0,-1.44639 0.0353,-3.280836 0.0353,-1.869723 0.10584,-3.880558 0.0705,-2.010835 0.10583,-3.915836 0.0353,-1.940279 0.0706,-3.492502 0.0353,-1.5522235 0.0353,-2.4694463 0,-1.2700009 -0.10583,-2.4694461 -0.10583,-1.2347231 -0.35278,-2.2930571 z m 23.63611,3.7041691 q 1.05833,-0.035278 2.01084,-0.070556 0.9525,-0.070556 1.48166,-0.1058334 1.09361,-0.1058334 2.68112,-0.2469446 1.5875,-0.1411112 3.56305,-0.3175002 2.01084,-0.176389 4.26862,-0.352778 2.25778,-0.2116668 4.69195,-0.4233336 1.83444,-0.1411113 3.66889,-0.2469447 1.83444,-0.1411112 3.45722,-0.2116668 1.65806,-0.1058334 2.8575,-0.1411112 l 0.0353,4.5155586 q -0.9525,0 -2.18722,0.035278 -1.23473,0.035278 -2.46945,0.1411112 -1.19944,0.070555 -2.15194,0.2822225 -1.58751,0.423334 -2.96334,1.44639 -1.34056,0.987778 -2.36361,2.363613 -1.02306,1.375834 -1.5875,2.963335 -0.52917,1.552223 -0.52917,3.139724 0,1.728613 0.59972,3.069169 0.59972,1.305279 1.65806,2.257779 1.09361,0.917223 2.54,1.552224 1.44639,0.599722 3.10445,0.917222 1.69333,0.317501 3.4925,0.423334 l -1.65806,4.833059 q -2.2225,-0.141111 -4.33917,-0.705556 -2.08139,-0.564445 -3.91583,-1.552223 -1.79917,-0.987779 -3.17501,-2.398891 -1.37583,-1.44639 -2.15194,-3.280835 -0.77611,-1.869724 -0.77611,-4.162781 0,-2.57528 0.81139,-4.691948 0.81139,-2.116668 2.01083,-3.704169 1.19945,-1.622779 2.39889,-2.504724 -0.98778,0.105834 -2.39889,0.282223 -1.37583,0.141111 -2.99861,0.352778 -1.5875,0.176389 -3.24556,0.388056 -1.65806,0.211666 -3.21028,0.493889 -1.51694,0.246944 -2.75167,0.493889 z m 54.75115,-5.7502816 h 4.16278 v 9.9836174 h -4.16278 z m -7.33778,2.7869463 h 19.01473 v 3.4572245 h -19.01473 z m 1.23472,5.5386148 h 16.75695 V 13.376653 H 191.5737 Z m -1.37584,5.0094483 h 19.50863 v 7.020282 h -3.70417 V 18.24499 h -12.27668 v 3.739447 h -3.52778 z m 10.61862,5.044725 h 3.77473 v 9.771951 q 0,0.740834 0.10583,0.952501 0.10583,0.176389 0.45861,0.176389 0.10584,0 0.35278,0 0.24695,0 0.45861,0 0.24695,0 0.38806,0 0.24694,0 0.38805,-0.282223 0.14111,-0.3175 0.21167,-1.234723 0.10583,-0.9525 0.14111,-2.857502 0.56445,0.458612 1.5875,0.881945 1.02306,0.423334 1.79917,0.635001 -0.17639,2.504724 -0.59972,3.915836 -0.38806,1.411112 -1.16417,1.940279 -0.74083,0.564445 -1.97556,0.564445 -0.21166,0 -0.52916,0 -0.28223,0 -0.59973,0 -0.3175,0 -0.635,0 -0.28222,0 -0.49389,0 -1.48166,0 -2.29305,-0.458612 -0.81139,-0.423333 -1.09361,-1.44639 -0.28223,-1.023056 -0.28223,-2.786946 z m -6.38528,0.03528 h 3.81 v 2.857502 q 0,1.340556 -0.28222,2.928057 -0.24694,1.552224 -1.02306,3.175003 -0.74083,1.622778 -2.25777,3.104446 -1.48167,1.516946 -3.9864,2.751669 -0.45861,-0.670279 -1.30527,-1.481668 -0.84667,-0.776112 -1.55223,-1.340557 2.15195,-1.058334 3.4925,-2.257779 1.34056,-1.199445 2.01084,-2.434168 0.67028,-1.234723 0.88194,-2.398891 0.21167,-1.164167 0.21167,-2.187223 z m -12.41779,-18.3444568 3.6689,1.3052786 q -0.70556,1.3758343 -1.48167,2.8222241 -0.77611,1.4111121 -1.51695,2.7516686 -0.74083,1.3052786 -1.41111,2.2930575 l -2.82222,-1.1641679 q 0.635,-1.0936118 1.30528,-2.4694461 0.67027,-1.3758342 1.27,-2.8575019 0.635,-1.4816677 0.98777,-2.6811129 z m 3.9864,4.1980584 3.45722,1.5522232 q -1.30528,1.9755569 -2.82222,4.1627802 -1.51695,2.187224 -3.03389,4.198059 -1.51695,2.010834 -2.89278,3.52778 l -2.43417,-1.340557 q 0.98778,-1.199445 2.04611,-2.681112 1.09361,-1.516946 2.11667,-3.139725 1.05833,-1.658056 1.97556,-3.2808353 0.91722,-1.6227789 1.5875,-2.9986131 z m -9.41918,4.0569471 2.08139,-2.8575019 q 0.88195,0.8466672 1.83445,1.8344457 0.9525,0.9877784 1.76389,1.9755565 0.81139,0.987779 1.19944,1.834446 l -2.25777,3.21028 q -0.38806,-0.846667 -1.16417,-1.905001 -0.74084,-1.058334 -1.65806,-2.116668 -0.91722,-1.093612 -1.79917,-1.9755573 z m 8.21973,4.3744473 2.96334,-1.199445 q 0.70555,1.164167 1.34055,2.540002 0.635,1.375834 1.12889,2.681112 0.49389,1.270001 0.70556,2.293058 l -3.21028,1.411112 q -0.14111,-1.023057 -0.59972,-2.363613 -0.45862,-1.340557 -1.05834,-2.716391 -0.59972,-1.411112 -1.27,-2.645835 z m -8.32556,2.822224 q 2.36361,-0.105833 5.57389,-0.282222 3.21028,-0.211667 6.5264,-0.423334 l 0.0705,3.457225 q -3.10445,0.246944 -6.20889,0.493889 -3.06917,0.211667 -5.53862,0.423334 z m 9.31334,6.032504 2.92806,-0.881945 q 0.635,1.44639 1.12889,3.21028 0.52916,1.76389 0.67027,2.998613 l -3.13972,1.023057 q -0.10583,-1.270001 -0.56444,-3.033891 -0.42334,-1.799168 -1.02306,-3.316114 z m -7.79639,-0.776111 3.38666,0.599722 q -0.28222,2.540002 -0.84666,5.009448 -0.52917,2.434168 -1.27,4.127503 -0.35278,-0.246945 -0.91723,-0.529167 -0.56444,-0.282223 -1.16416,-0.529167 -0.59973,-0.282223 -1.02306,-0.423334 0.77611,-1.587501 1.19944,-3.810002 0.42334,-2.222502 0.63501,-4.445003 z m 3.84528,-3.351391 h 3.66889 v 15.769177 h -3.66889 z M 216.76205,6.3210932 q 3.88056,0.4586114 7.12612,0.5644448 3.28083,0.070556 6.06778,-0.1411112 2.43417,-0.2116668 4.65667,-0.6350004 2.2225,-0.4233337 4.37444,-1.0936119 l 0.56445,4.0569472 q -1.905,0.529167 -4.1275,0.9172228 -2.22251,0.3880555 -4.55084,0.5997225 -2.71639,0.211667 -6.27945,0.211667 -3.52778,-0.03528 -7.58473,-0.423334 z m -0.635,7.4083378 q 3.21028,0.282223 6.13834,0.388056 2.92805,0.105834 5.50333,0 2.57528,-0.105833 4.69195,-0.282222 2.8575,-0.246945 4.90362,-0.705556 2.04611,-0.493889 3.56305,-0.917223 l 0.70556,4.162781 q -1.5875,0.388055 -3.4925,0.740833 -1.905,0.352778 -4.05695,0.599723 -2.25778,0.211667 -5.18584,0.352778 -2.89278,0.105833 -6.10306,0.07056 -3.21028,-0.07056 -6.42056,-0.246945 z m 11.78278,-6.4205594 q -0.24694,-0.9877784 -0.56444,-1.9402791 -0.3175,-0.9877784 -0.70556,-2.0108347 l 4.76251,-0.529167 q 0.21166,1.6580567 0.52916,3.2808356 0.35278,1.587501 0.77612,3.0691687 0.45861,1.4816679 0.88194,2.8575019 0.42333,1.199445 1.09361,2.751669 0.70556,1.516945 1.51695,3.069168 0.81139,1.516946 1.62278,2.751669 0.35277,0.493889 0.70555,0.9525 0.38806,0.423334 0.88195,0.846668 l -2.15195,3.245557 q -0.98778,-0.211666 -2.46944,-0.423333 -1.44639,-0.211667 -3.0339,-0.388056 -1.55222,-0.176389 -2.8575,-0.3175 l 0.35278,-3.351391 q 1.09361,0.105833 2.36361,0.211666 1.30528,0.105834 2.08139,0.211667 -1.41111,-2.363612 -2.43416,-4.621392 -0.98778,-2.257779 -1.65806,-4.198058 -0.42333,-1.234723 -0.70556,-2.116668 -0.28222,-0.9172231 -0.52916,-1.6933347 -0.21167,-0.8113895 -0.45862,-1.6580567 z m -5.00944,14.6050094 q -0.635,0.881945 -1.09362,1.834446 -0.45861,0.917223 -0.45861,2.08139 0,1.940279 1.79917,2.822225 1.83445,0.846667 5.32695,0.846667 2.50472,0 4.72722,-0.211667 2.25778,-0.211667 4.12751,-0.564445 l -0.24695,4.480281 q -1.83444,0.3175 -4.1275,0.493889 -2.29306,0.176389 -4.445,0.176389 -3.52778,0 -6.10306,-0.740834 -2.54,-0.740834 -3.95112,-2.293057 -1.41111,-1.587501 -1.44639,-4.092225 -0.0353,-1.693334 0.42334,-3.033891 0.49389,-1.375834 1.09361,-2.645835 z M 262.55264,3.7810915 q -0.17639,0.6702782 -0.35278,1.4816676 -0.14111,0.7761117 -0.28222,1.4463899 -0.14112,0.7761116 -0.35278,1.7638901 -0.21167,0.9525006 -0.42334,1.9402789 -0.17639,0.952501 -0.38805,1.869724 -0.35278,1.516945 -0.88195,3.52778 -0.52916,2.010834 -1.23472,4.339169 -0.70556,2.293057 -1.5875,4.621392 -0.88195,2.328335 -1.86973,4.550837 -0.98777,2.187223 -2.11666,3.951114 l -4.58612,-1.834446 q 1.23473,-1.658057 2.29306,-3.704169 1.09361,-2.081391 1.97556,-4.268614 0.88194,-2.187224 1.55222,-4.303892 0.70556,-2.116668 1.19945,-3.951114 0.49388,-1.834446 0.77611,-3.139724 0.49389,-2.3988907 0.77611,-4.6213922 0.28222,-2.2225015 0.24694,-4.1980584 z m 12.13556,3.3161133 q 0.84667,1.1288897 1.72861,2.8575019 0.91722,1.6933343 1.76389,3.5983353 0.88195,1.905002 1.5875,3.668892 0.74084,1.76389 1.12889,2.998613 l -4.48028,2.08139 q -0.35278,-1.481667 -0.98778,-3.280835 -0.59972,-1.834446 -1.41111,-3.704169 -0.77611,-1.905002 -1.69333,-3.598336 -0.88195,-1.693335 -1.83445,-2.8222243 z m -26.45835,3.9158362 q 0.9525,0.07056 1.86972,0.07056 0.91722,-0.03528 1.905,-0.07056 0.84667,-0.03528 2.08139,-0.105834 1.27,-0.105833 2.64584,-0.211666 1.41111,-0.105834 2.82222,-0.211667 1.41111,-0.141111 2.61056,-0.211667 1.19944,-0.07056 1.97556,-0.07056 1.86972,0 3.28083,0.635001 1.44639,0.599722 2.25778,2.08139 0.84667,1.481668 0.84667,4.021669 0,2.081391 -0.21167,4.515559 -0.17639,2.434168 -0.59972,4.65667 -0.42333,2.222501 -1.19945,3.774725 -0.84666,1.834445 -2.32833,2.540001 -1.44639,0.705556 -3.45723,0.705556 -1.02305,0 -2.18722,-0.176389 -1.12889,-0.141111 -2.04611,-0.3175 l -0.77611,-4.65667 q 0.70555,0.176389 1.51694,0.352778 0.84667,0.176389 1.5875,0.282223 0.77611,0.105833 1.23473,0.105833 0.88194,0 1.55222,-0.3175 0.67028,-0.352778 1.09361,-1.199445 0.49389,-1.023057 0.77611,-2.645835 0.3175,-1.622779 0.45861,-3.492503 0.17639,-1.905001 0.17639,-3.633613 0,-1.411112 -0.38805,-2.081391 -0.38806,-0.670278 -1.16417,-0.881945 -0.74083,-0.246944 -1.86972,-0.246944 -0.77611,0 -2.18723,0.141111 -1.37583,0.105833 -2.92805,0.282222 -1.55223,0.141112 -2.92806,0.317501 -1.34056,0.176389 -2.08139,0.246944 -0.74084,0.141111 -1.94028,0.3175 -1.16417,0.141112 -1.97556,0.282223 z m 45.08503,-7.7611166 q 1.27,0.3880559 3.175,0.8113895 1.905,0.4233336 3.98639,0.8466672 2.08139,0.3880558 3.91584,0.6702782 1.86972,0.2822225 3.03389,0.4233337 l -1.05834,4.303892 q -1.05833,-0.141111 -2.57527,-0.3880561 -1.48167,-0.2822224 -3.17501,-0.5997226 -1.65805,-0.3175002 -3.28083,-0.6350004 -1.62278,-0.352778 -2.96334,-0.6702783 -1.34055,-0.3175002 -2.18722,-0.529167 z m 0.21167,7.0908386 q -0.17639,0.705556 -0.38806,1.834445 -0.17639,1.093612 -0.35278,2.293057 -0.17639,1.199446 -0.35278,2.293057 -0.14111,1.093612 -0.24694,1.834446 2.39889,-1.728612 5.00945,-2.540002 2.64583,-0.811389 5.3975,-0.811389 3.10445,0 5.29167,1.12889 2.18722,1.128889 3.31611,2.963335 1.16417,1.834446 1.16417,3.986391 0,2.398891 -1.02306,4.445003 -1.02305,2.046113 -3.35139,3.492503 -2.32833,1.44639 -6.10306,2.046112 -3.77472,0.599723 -9.27806,0.141112 l -1.34055,-4.621392 q 5.29167,0.705556 8.89,0.211666 3.59834,-0.529167 5.43278,-2.046112 1.86973,-1.552223 1.86973,-3.774725 0,-1.164167 -0.67028,-2.046112 -0.67028,-0.917223 -1.86972,-1.411112 -1.19945,-0.529167 -2.7164,-0.529167 -2.96333,0 -5.57389,1.093611 -2.57528,1.058334 -4.23333,3.069169 -0.45862,0.564445 -0.77612,1.058334 -0.28222,0.458612 -0.52916,0.987779 l -4.05695,-1.023057 q 0.21167,-1.023056 0.42333,-2.39889 0.21167,-1.411112 0.42334,-2.998613 0.21166,-1.622779 0.38805,-3.245558 0.17639,-1.622779 0.3175,-3.21028 0.14111,-1.587501 0.21167,-2.8927797 z"
       aria-label="ロードして続きから" />
  </g>
</svg>
