<?xml version="1.0"?>
<svg xmlns="http://www.w3.org/2000/svg" viewBox="0 0 174.74899 33.426132">
  <g transform="translate(-10.650981,-21.738282)">
    <path aria-label="悲愴三国志" d="m 20.41431,43.88413 h 4.198059 v 5.750281 q 0,0.776112 0.3175,0.987779 0.3175,0.176389 1.481668,0.176389 0.246944,0 0.811389,0 0.599723,0 1.305279,0 0.705556,0 1.305278,0 0.635001,0 0.987779,0 0.635,0 0.9525,-0.211667 0.352778,-0.246945 0.49389,-0.952501 0.141111,-0.740833 0.211666,-2.222501 0.670279,0.458611 1.76389,0.881945 1.12889,0.388056 1.975557,0.599723 -0.211666,2.257779 -0.740833,3.492502 -0.529168,1.234723 -1.552224,1.693334 -0.987778,0.49389 -2.71639,0.49389 -0.282223,0 -0.846668,0 -0.529167,0 -1.199445,0 -0.670278,0 -1.340556,0 -0.635001,0 -1.164168,0 -0.529167,0 -0.776111,0 -2.187224,0 -3.386669,-0.458612 -1.199446,-0.458611 -1.658057,-1.516945 -0.423334,-1.058334 -0.423334,-2.928058 z m 2.434169,-1.728613 2.963335,-2.39889 q 1.12889,0.635 2.293057,1.481668 1.164167,0.846667 2.187224,1.728612 1.023056,0.846667 1.622779,1.693334 l -3.139725,2.610558 q -0.564445,-0.776112 -1.516945,-1.693335 -0.952501,-0.917223 -2.116668,-1.834445 -1.164168,-0.917223 -2.293057,-1.587502 z m 11.465285,2.857502 3.52778,-1.834445 q 1.305279,1.199445 2.540002,2.681113 1.234723,1.481667 2.222501,2.998613 1.023057,1.481667 1.516946,2.822224 l -3.84528,2.010835 Q 39.817101,52.421358 38.899878,50.93969 37.982655,49.422745 36.78321,47.870521 35.583765,46.28302 34.313764,45.013019 Z m -18.803068,-0.881945 3.774725,1.340557 q -0.705556,2.328335 -1.869724,4.515558 -1.164167,2.187224 -3.139724,3.668892 L 10.783471,51.25719 q 1.164167,-0.846667 2.046112,-1.975557 0.917223,-1.128889 1.587501,-2.434168 0.705556,-1.340556 1.093612,-2.716391 z m -4.056947,-8.255005 q 2.187224,-0.141111 5.185837,-0.388056 3.03389,-0.282222 6.173615,-0.564445 l 0.03528,3.175002 q -2.92806,0.352778 -5.856117,0.705556 -2.89278,0.317501 -5.256393,0.564445 z M 29.41015,21.870781 h 4.021669 V 42.402462 H 29.41015 Z M 12.441527,25.010506 H 23.659868 V 28.46773 H 12.441527 Z m 18.556124,0 H 42.850992 V 28.46773 H 30.997651 Z M 13.570417,30.23162 h 9.666117 v 3.386669 h -9.666117 z m 18.273901,0 h 9.736673 v 3.386669 h -9.736673 z m -0.846667,5.185837 h 12.02973 V 38.90996 H 30.997651 Z M 21.578478,21.976615 h 3.986391 v 10.58334 q 0,1.94028 -0.458611,3.739447 -0.423334,1.799168 -1.516946,3.386669 -1.058334,1.587501 -2.928057,2.857502 -1.869723,1.234723 -4.797781,2.116668 -0.246944,-0.458611 -0.670278,-1.023056 -0.423334,-0.599723 -0.917223,-1.164167 -0.458611,-0.599723 -0.881945,-0.952501 2.681113,-0.599723 4.303892,-1.516945 1.658056,-0.917223 2.469446,-2.116669 0.846667,-1.199445 1.128889,-2.575279 0.282223,-1.375834 0.282223,-2.786946 z m 46.143364,3.880558 q -1.023056,1.516945 -2.575279,3.175002 -1.552224,1.658057 -3.457225,3.21028 -1.869723,1.552223 -3.951114,2.716391 -0.3175,-0.740834 -0.9525,-1.76389 -0.599723,-1.023056 -1.164168,-1.693335 2.046113,-1.058334 3.986392,-2.645835 1.940279,-1.587501 3.492502,-3.351391 1.587501,-1.76389 2.540002,-3.386669 h 3.880558 q 1.340556,1.76389 3.033891,3.457224 1.693334,1.658057 3.563058,3.033891 1.905001,1.340557 3.810002,2.222502 -0.635,0.705556 -1.27,1.728612 -0.635001,1.023057 -1.12889,1.94028 -1.76389,-1.023057 -3.598336,-2.469447 -1.834446,-1.446389 -3.457224,-3.033891 -1.622779,-1.622779 -2.751669,-3.139724 z m -3.915836,2.963335 H 71.9199 v 2.857502 h -8.113894 z m -2.39889,8.113895 h 12.876397 v 2.645835 H 61.407116 Z M 59.25517,32.877456 h 3.915836 v 4.727225 q 0,1.76389 -0.211667,3.951114 -0.176389,2.151946 -0.705556,4.409725 -0.529167,2.222501 -1.481668,4.374447 -0.917223,2.116668 -2.39889,3.845281 -0.317501,-0.423334 -0.881945,-0.987779 -0.564445,-0.529167 -1.164168,-1.058334 -0.599722,-0.493889 -1.023056,-0.740834 1.340556,-1.516945 2.116668,-3.280835 0.811389,-1.799168 1.199445,-3.668891 0.388056,-1.869724 0.49389,-3.633614 0.141111,-1.799168 0.141111,-3.280836 z m 2.151946,0 H 76.435459 V 43.743019 H 61.407116 V 40.99135 h 10.90084 v -5.362226 h -10.90084 z m 0.458611,12.100286 h 15.345844 v 9.94834 h -4.127503 v -6.843894 h -7.337783 v 6.949727 h -3.880558 z m 1.375834,5.750281 h 11.853342 v 3.069169 H 63.241561 Z M 50.647386,21.906059 h 3.986392 v 33.125856 h -3.986392 z m -3.104446,5.256392 2.681113,0.317501 q 0,1.693334 -0.176389,3.563058 -0.141112,1.834446 -0.529167,3.563058 -0.388056,1.693334 -1.023057,2.963335 l -2.610557,-1.164167 q 0.529167,-1.12889 0.881945,-2.681113 0.388056,-1.552223 0.564445,-3.280836 0.211667,-1.728612 0.211667,-3.280836 z m 6.73806,-1.023056 2.328335,-0.9525 q 0.564444,1.023056 1.023056,2.257779 0.493889,1.199445 0.635,2.08139 l -2.434168,1.12889 Q 55.656834,29.737731 55.198223,28.46773 54.774889,27.197729 54.281,26.139395 Z m 30.409465,-0.846667 h 26.916955 v 4.33917 H 84.690465 Z M 87.124633,36.65218 H 108.7852 v 4.303892 H 87.124633 Z m -4.409725,11.959175 h 30.762242 v 4.303892 H 82.714908 Z M 124.5191,29.102731 h 17.42723 v 3.668891 H 124.5191 Z m 0.9525,7.020282 h 15.69862 v 3.563058 H 125.4716 Z m -1.30528,7.761117 h 18.37974 v 3.457224 h -18.37974 z m 7.09084,-13.617232 h 3.91584 v 15.451677 h -3.91584 z m 5.04473,10.548063 2.68111,-1.375834 q 0.77611,0.740834 1.62278,1.728612 0.84666,0.952501 1.27,1.693334 l -2.82223,1.587502 q -0.42333,-0.740834 -1.23472,-1.763891 -0.77611,-1.023056 -1.51694,-1.869723 z m -17.85057,-17.49779 h 29.80974 V 54.996637 H 143.7455 V 27.197729 h -20.99029 v 27.798908 h -4.30389 z m 2.36361,26.035018 h 25.01196 v 3.915836 h -25.01196 z m 32.1028,-23.036405 h 31.64419 v 3.986392 h -31.64419 z m 2.29306,8.396117 h 27.19918 v 4.02167 h -27.19918 z m 11.18306,-12.805842 h 4.30389 v 15.628066 h -4.30389 z m -5.22111,20.813903 h 4.19805 v 6.73806 q 0,0.81139 0.35278,1.058334 0.35278,0.211667 1.5875,0.211667 0.28223,0 0.91723,0 0.67027,0 1.44639,0 0.77611,0 1.44639,0 0.70555,0 1.05833,0 0.70556,0 1.05833,-0.246944 0.35278,-0.282223 0.52917,-1.093612 0.17639,-0.846667 0.24695,-2.504724 0.45861,0.282222 1.09361,0.599722 0.67028,0.317501 1.37583,0.564445 0.74083,0.211667 1.30528,0.352778 -0.24694,2.398891 -0.77611,3.704169 -0.52917,1.340557 -1.62278,1.834446 -1.05833,0.529167 -2.8575,0.529167 -0.28223,0 -0.88195,0 -0.56444,0 -1.27,0 -0.70555,0 -1.44639,0 -0.70555,0 -1.27,0 -0.56444,0 -0.84667,0 -2.25778,0 -3.4925,-0.458611 -1.19944,-0.458612 -1.69333,-1.552224 -0.45861,-1.058334 -0.45861,-2.963335 z m 2.50472,-2.010834 2.8575,-2.540002 q 1.16417,0.564445 2.39889,1.375834 1.27,0.81139 2.32834,1.693335 1.09361,0.846667 1.76389,1.622778 l -3.06917,2.786947 q -0.56445,-0.740834 -1.62278,-1.658057 -1.02306,-0.917223 -2.25778,-1.76389 -1.19945,-0.881945 -2.39889,-1.516945 z m 11.99445,3.280835 3.52778,-1.834446 q 1.23472,1.340557 2.43417,2.928058 1.23472,1.552223 2.18722,3.139724 0.9525,1.552224 1.44639,2.89278 l -3.88055,2.046113 q -0.42334,-1.305279 -1.30528,-2.89278 -0.88195,-1.622779 -2.04612,-3.245558 -1.12889,-1.658057 -2.36361,-3.033891 z m -19.47334,-0.987778 3.81,1.164167 q -0.42334,1.76389 -0.98778,3.492502 -0.56445,1.728613 -1.44639,3.245558 -0.88195,1.481668 -2.15195,2.645835 l -3.56305,-2.363612 q 1.69333,-1.44639 2.75166,-3.598336 1.09362,-2.187224 1.58751,-4.586114 z"/>
  </g>
</svg>
