<?xml version="1.0"?>
<svg xmlns="http://www.w3.org/2000/svg" viewBox="0 0 206.48097 32.914192">
  <g transform="translate(-0.93247502,-1.9819236)">
    <path
      d="M 21.358322,13.341376 H 34.55222 v 3.915836 H 21.358322 Z M 2.2377537,5.1922035 H 18.148042 V 8.6141503 H 2.2377537 Z M 1.9202535,19.232769 H 18.112764 v 3.563057 H 1.9202535 Z M 1.8144201,13.059153 H 18.430265 v 3.457225 H 1.8144201 Z m 25.2589059,2.010835 h 4.127503 v 19.57918 H 27.073326 Z M 8.1644244,1.9819236 H 12.256649 V 6.709149 H 8.1644244 Z m 0,14.3227874 h 4.0922246 v 18.45029 H 8.1644244 Z M 19.453321,4.4513697 24.392213,5.8624818 q -0.03528,0.4586114 -0.881945,0.5997226 V 16.833878 q 0,1.975557 -0.211667,4.33917 -0.176389,2.328335 -0.740834,4.797781 -0.564444,2.434168 -1.658056,4.727225 -1.093612,2.293057 -2.89278,4.198058 -0.246945,-0.493889 -0.811389,-1.058334 -0.529167,-0.564444 -1.12889,-1.093611 -0.564445,-0.49389 -1.093612,-0.740834 1.552223,-1.622779 2.434168,-3.492503 0.917223,-1.905001 1.340557,-3.915836 0.458611,-2.010834 0.564445,-3.986391 0.141111,-2.010835 0.141111,-3.845281 z M 30.989162,2.0524792 34.375831,5.1216479 Q 32.576663,5.9330374 30.459995,6.6033156 28.343327,7.2735938 26.120825,7.8027608 23.933602,8.2966501 21.887489,8.6847059 21.7111,8.0144276 21.323044,7.061927 20.934989,6.1094264 20.546933,5.4744259 22.451934,5.0510923 24.392213,4.5219253 26.332492,3.9574805 28.025827,3.32248 29.754439,2.6874796 30.989162,2.0524792 Z M 11.974427,22.936938 q 0.388056,0.211666 1.12889,0.776111 0.776111,0.564445 1.622778,1.234723 0.846668,0.635001 1.516946,1.199446 0.705556,0.529167 1.058334,0.776111 l -2.469446,3.033891 q -0.423334,-0.493889 -1.093612,-1.199445 -0.635,-0.740834 -1.411112,-1.481668 -0.740834,-0.740834 -1.44639,-1.411112 -0.705556,-0.670278 -1.1994452,-1.093612 z M 4.0016438,9.1433173 7.2824793,8.3672057 q 0.4586114,0.9525006 0.8113895,2.1519463 0.352778,1.164167 0.4586114,2.010834 L 5.1305334,13.482487 Q 5.0599778,12.600542 4.7424776,11.401097 4.4602552,10.166374 4.0016438,9.1433173 Z m 8.7841722,-0.8466672 3.774725,0.7408338 q -0.493889,1.1994451 -0.952501,2.3283351 -0.458611,1.093612 -0.846667,1.869723 l -3.386669,-0.705556 q 0.246945,-0.599722 0.529167,-1.340556 0.282223,-0.740834 0.529167,-1.4816679 0.246945,-0.7761116 0.352778,-1.411112 z M 8.1997022,21.278881 11.163037,22.407771 Q 10.31637,24.312772 9.116925,26.253051 7.9174797,28.158052 6.5063677,29.816109 5.0952556,31.474166 3.6841436,32.603055 3.2255321,31.932777 2.4141427,31.050832 1.6027533,30.133609 0.93247504,29.604442 2.3083093,28.722497 3.6841436,27.381941 5.0599778,26.006106 6.2241453,24.453883 7.4235905,22.866382 8.1997022,21.278881 Z M 37.586111,7.0972048 H 50.568342 V 10.836652 H 37.586111 Z m -0.564445,8.1844502 h 14.075843 v 3.84528 H 37.021666 Z M 42.172225,2.0172014 h 3.951114 V 14.787766 q 0,2.469446 -0.246945,5.150559 -0.211667,2.681112 -0.917223,5.326948 -0.670278,2.610557 -2.010834,4.938892 -1.305279,2.328335 -3.527781,4.16278 -0.282222,-0.423333 -0.776111,-1.023056 -0.493889,-0.564445 -1.058334,-1.12889 -0.564445,-0.529167 -1.058334,-0.881945 1.975557,-1.446389 3.104446,-3.457224 1.164168,-2.010835 1.693335,-4.268614 0.529167,-2.257779 0.670278,-4.515559 0.176389,-2.293057 0.176389,-4.303891 z M 45.558894,19.69138 q 0.388056,0.3175 1.023056,1.023056 0.635001,0.670278 1.375834,1.516946 0.740834,0.846667 1.481668,1.693334 0.740834,0.846667 1.340557,1.516946 0.599722,0.670278 0.846667,0.987778 l -2.857502,3.033891 q -0.529167,-0.811389 -1.270001,-1.869724 -0.740834,-1.058334 -1.587501,-2.151945 -0.811389,-1.12889 -1.587501,-2.116669 -0.776112,-0.987778 -1.340557,-1.658056 z m 10.548063,-7.620005 v 2.08139 h 7.725838 v -2.08139 z m 0,5.397503 v 2.116669 h 7.725838 v -2.116669 z m 0,-10.7950068 v 2.0461125 h 7.725838 V 6.6738712 Z M 52.191121,2.9344242 H 67.92502 V 23.324993 H 52.191121 Z m 8.043338,19.0500128 h 3.915836 v 7.408338 q 0,0.705556 0.105834,0.881945 0.105833,0.176389 0.493889,0.176389 0.07056,0 0.3175,0 0.246945,0 0.493889,0 0.282223,0 0.388056,0 0.3175,0 0.458612,-0.246944 0.141111,-0.282223 0.211666,-1.164168 0.07056,-0.917222 0.105834,-2.822224 0.388056,0.3175 0.987778,0.635001 0.635001,0.3175 1.305279,0.564444 0.705556,0.211667 1.199445,0.388056 -0.176389,2.504724 -0.599722,3.880558 -0.423334,1.375835 -1.199446,1.905002 -0.776111,0.529167 -2.046112,0.529167 -0.211667,0 -0.529167,0 -0.3175,0 -0.670278,0 -0.317501,0 -0.635001,0 -0.282222,0 -0.493889,0 -1.552223,0 -2.398891,-0.458612 -0.846667,-0.423333 -1.128889,-1.481667 -0.282223,-1.023057 -0.282223,-2.751669 z m -5.715003,0.705556 h 3.986391 q -0.246944,2.08139 -0.705556,3.915836 -0.423334,1.799168 -1.340556,3.316113 -0.917223,1.516946 -2.469446,2.751669 -1.552224,1.270001 -3.986392,2.151946 -0.3175,-0.705556 -1.023056,-1.658057 -0.670279,-0.952501 -1.305279,-1.481668 2.751669,-0.917222 4.127503,-2.222501 1.411112,-1.340556 1.940279,-3.033891 0.564445,-1.693334 0.776112,-3.739447 z M 100.34532,7.7322052 q -0.21167,0.3175002 -0.635001,0.9877785 -0.388056,0.6702782 -0.599722,1.234723 -0.740834,1.6580563 -1.834446,3.7041693 -1.058334,2.046112 -2.434168,4.127503 -1.340557,2.046112 -2.857502,3.84528 -1.975557,2.222502 -4.374448,4.409725 -2.363612,2.151946 -5.009447,3.986392 -2.610558,1.799168 -5.362226,3.104446 L 73.604746,29.32222 q 2.857502,-1.093612 5.538615,-2.751669 2.681113,-1.658056 4.97417,-3.598336 2.293057,-1.940279 3.951114,-3.774724 1.164167,-1.340557 2.187223,-2.857502 1.058335,-1.516946 1.869724,-2.998613 0.811389,-1.516946 1.199445,-2.786947 -0.352778,0 -1.270001,0 -0.917222,0 -2.151946,0 -1.199445,0 -2.540001,0 -1.340557,0 -2.57528,0 -1.199445,0 -2.116668,0 -0.917223,0 -1.305279,0 -0.740833,0 -1.552223,0.07056 -0.811389,0.03528 -1.552223,0.105833 -0.705556,0.03528 -1.093612,0.07056 V 5.7919261 q 0.529167,0.035278 1.305279,0.1058335 0.776111,0.070556 1.552223,0.1058334 0.811389,0.035278 1.340556,0.035278 0.458612,0 1.44639,0 0.987779,0 2.25778,0 1.270001,0 2.610557,0 1.375834,0 2.610557,0 1.270001,0 2.187224,0 0.917223,0 1.340556,0 1.164168,0 2.116669,-0.1411112 0.987778,-0.1411113 1.516945,-0.3175003 z M 92.443092,18.703602 q 1.375834,1.093611 2.928058,2.540001 1.552223,1.44639 3.069168,2.998613 1.516946,1.552224 2.786942,2.998613 1.30528,1.411113 2.18723,2.469447 l -4.021671,3.492502 Q 98.08754,31.40361 96.394206,29.463331 94.736149,27.523052 92.866426,25.618051 91.03198,23.677772 89.126979,21.949159 Z m 28.892518,-3.563058 q 1.62278,0.917222 3.52778,2.187223 1.94028,1.234723 3.91584,2.57528 1.97555,1.340556 3.70417,2.610557 1.76389,1.270001 2.96333,2.257779 l -3.35139,3.986392 q -1.16417,-1.058334 -2.89278,-2.434168 -1.69333,-1.411112 -3.66889,-2.857502 -1.97556,-1.481668 -3.91584,-2.822224 -1.905,-1.340557 -3.42194,-2.293058 z m 16.58057,-5.9972267 q -0.3175,0.4938892 -0.635,1.1641677 -0.3175,0.670278 -0.52917,1.340556 -0.52917,1.622779 -1.44639,3.633614 -0.88194,1.975557 -2.11667,4.056947 -1.23472,2.046112 -2.82222,4.021669 -2.50473,3.104447 -6.03251,5.891393 -3.4925,2.786946 -8.5725,4.727226 l -4.09223,-3.563058 q 3.70417,-1.12889 6.42056,-2.681113 2.71639,-1.552224 4.69195,-3.316114 2.01084,-1.76389 3.4925,-3.52778 1.19945,-1.375834 2.25778,-3.069169 1.09361,-1.728612 1.86973,-3.421946 0.81139,-1.728613 1.12889,-3.069169 H 119.607 l 1.62278,-4.0216694 h 10.01889 q 0.84667,0 1.65806,-0.1058334 0.84667,-0.1058334 1.41111,-0.2822224 z M 126.2745,3.7105359 q -0.635,0.9172228 -1.27,1.9755568 -0.59972,1.0583341 -0.91722,1.6227789 -1.19945,2.1166681 -3.03389,4.5155584 -1.83445,2.363613 -4.1275,4.621392 -2.25778,2.25778 -4.79778,4.02167 l -3.81001,-2.928058 q 3.10445,-1.940279 5.2564,-4.056947 2.18722,-2.151946 3.63361,-4.1275029 1.44639,-2.0108347 2.32833,-3.563058 0.42334,-0.6350004 0.88195,-1.6933344 0.49389,-1.0936119 0.74083,-1.9755569 z m 18.45029,11.6063971 q 0.635,0.03528 1.62278,0.105833 0.98778,0.03528 2.04612,0.07056 1.09361,0.03528 2.01083,0.03528 0.88195,0 2.18722,0 1.30528,0 2.82223,0 1.55222,0 3.175,0 1.65806,0 3.28084,0 1.62277,0 3.06916,0 1.44639,0 2.57528,0 1.16417,0 1.83445,0 1.23472,0 2.32833,-0.07056 1.09362,-0.105834 1.79917,-0.141111 v 5.538614 q -0.59972,-0.03528 -1.79917,-0.105833 -1.19944,-0.07056 -2.32833,-0.07056 -0.67028,0 -1.83445,0 -1.16416,0 -2.61055,0 -1.44639,0 -3.06917,0 -1.5875,0 -3.24556,0 -1.65806,0 -3.21028,0 -1.51695,0 -2.82222,0 -1.27,0 -2.15195,0 -1.51695,0 -3.10445,0.07056 -1.5875,0.03528 -2.57528,0.105833 z m 43.10948,12.946953 q 0,-0.670279 0,-2.187224 0,-1.552223 0,-3.563058 0,-2.046112 0,-4.268614 0,-2.222501 0,-4.268614 0,-2.08139 0,-3.668891 0,-1.5875013 0,-2.3283352 0,-0.9172228 -0.10584,-2.116668 -0.0705,-1.1994453 -0.24694,-2.1166681 h 5.50334 q -0.10584,0.9172228 -0.21167,2.0461124 -0.10583,1.0936119 -0.10583,2.1872237 0,0.9877785 0,2.6811132 0,1.693334 0,3.774725 0,2.046112 0,4.198058 0,2.116668 0,4.092225 0,1.975557 0,3.457224 0,1.44639 0,2.081391 0,0.493889 0.0353,1.411112 0.0353,0.881945 0.14112,1.834445 0.10583,0.952501 0.14111,1.693335 h -5.50334 q 0.14111,-1.058334 0.24694,-2.469446 0.10584,-1.411112 0.10584,-2.469446 z m 3.77472,-15.381122 q 1.76389,0.458612 3.95112,1.199446 2.18722,0.705556 4.40972,1.516945 2.2225,0.811389 4.16278,1.622779 1.97556,0.776111 3.28084,1.44639 l -2.01084,4.868336 q -1.48167,-0.776111 -3.28083,-1.552223 -1.79917,-0.811389 -3.66889,-1.552223 -1.83445,-0.740834 -3.63362,-1.375834 -1.76389,-0.635001 -3.21028,-1.12889 z"
      aria-label="新規スタート" />
  </g>
</svg>
