<?xml version="1.0"?>
<svg xmlns="http://www.w3.org/2000/svg" width="auto" height="auto" viewBox="0 0 100 100">
	<path d="M28,0 L72,0 L100,28 L100,72 L72,100 L28,100 L0,72 L0,28 z" fill="#CBB"/>
	<path d="m 35.398437,29.091797 q 1.513672,-5.419922 2.978516,-12.597656 1.025391,-6.00586 1.025391,-11.0839848 7.324218,1.5625 11.96289,3.2714844 1.611328,0.4882813 1.611328,2.0019534 0,0.830078 -0.683593,1.513672 -1.220703,1.5625 -2.001953,3.808593 -0.732422,2.246094 -1.904297,6.347657 -1.123047,3.759765 -1.708985,5.664062 3.66211,-0.439453 7.8125,-0.439453 7.56836,0 11.230469,5.371094 3.271484,4.6875 3.271484,13.134765 0,9.716797 -1.611328,18.896485 -1.464843,8.300781 -3.808593,13.232422 -4.248047,9.375 -13.476563,9.375 -6.445312,0 -9.912109,-1.123047 -1.806641,-0.585938 -1.806641,-2.783203 -0.537109,-6.152344 -1.855469,-9.277344 5.810547,2.197265 10.986328,2.197265 2.636719,0 4.052735,-1.269531 1.220703,-1.171875 2.34375,-4.052734 3.90625,-10.351563 3.90625,-24.75586 0,-5.71289 -1.367188,-7.617187 -1.269531,-1.708984 -4.345703,-1.708984 -3.320312,0 -8.398437,0.683593 -9.814453,28.564453 -20.117188,47.021485 -0.537109,1.220703 -1.464844,1.220703 -0.488281,0 -1.123046,-0.341797 -4.638672,-2.246094 -6.933594,-4.394531 -0.78125,-0.78125 -0.78125,-1.464844 0,-0.585938 0.390625,-1.123047 11.865234,-20.556641 18.310547,-39.208984 -3.417969,0.537109 -9.765625,1.708984 -2.685547,0.537109 -5.517578,1.611328 -0.683594,0.244141 -1.220703,0.244141 -1.416016,0 -2.001954,-1.5625 -1.416015,-3.710938 -3.076171,-10.302735 5.517578,0 13.183593,-0.683593 5.419922,-0.53711 11.816406,-1.513672 z m 35.595704,-0.78125 q 5.615234,-3.808594 8.105468,-5.126953 0.341797,-0.195313 0.683594,-0.195313 0.537109,0 1.220703,0.683594 11.376953,10.693359 16.601563,24.316406 0.24414,0.53711 0.24414,0.878906 0,0.585938 -0.634765,1.123047 -2.832032,2.685547 -7.519532,4.980469 -0.537109,0.292969 -1.02539,0.292969 -0.976563,0 -1.269531,-1.074219 -6.201172,-16.259766 -16.40625,-25.878906 z" fill="#844" stroke="#844" stroke-width="3"/>
</svg>